<svg width="20" height="19" viewBox="0 0 20 19" fill="none" xmlns="http://www.w3.org/2000/svg">
<path id="Vector" d="M18.4615 0.5H1.53849C1.13046 0.5 0.739149 0.658035 0.450632 0.93934C0.162115 1.22064 2.78599e-05 1.60218 2.78599e-05 2V17C-0.00174625 17.286 0.0812457 17.5665 0.239028 17.8076C0.39681 18.0488 0.622667 18.2404 0.88945 18.3594C1.09275 18.4517 1.31423 18.4997 1.53849 18.5C1.89964 18.4992 2.24882 18.3736 2.52406 18.1456C2.52865 18.1427 2.53285 18.1392 2.53656 18.1353L5.62502 15.5H18.4615C18.8696 15.5 19.2609 15.342 19.5494 15.0607C19.8379 14.7794 20 14.3978 20 14V2C20 1.60218 19.8379 1.22064 19.5494 0.93934C19.2609 0.658035 18.8696 0.5 18.4615 0.5ZM18.4615 14H5.62502C5.26273 13.9998 4.91201 14.1243 4.63464 14.3516L4.6231 14.3619L1.53849 17V2H18.4615V14Z" fill="#A4A2A2"/>
</svg>
