<svg width="18" height="19" viewBox="0 0 18 19" fill="none" xmlns="http://www.w3.org/2000/svg">
<path d="M18 17.8669C18 18.1321 17.8946 18.3864 17.7071 18.574C17.5196 18.7615 17.2652 18.8669 17 18.8669H1C0.734784 18.8669 0.48043 18.7615 0.292893 18.574C0.105357 18.3864 2.4071e-07 18.1321 2.4071e-07 17.8669V7.35587C-0.000105484 7.20349 0.0346172 7.05309 0.101516 6.91617C0.168415 6.77926 0.26572 6.65944 0.386 6.56587L8.386 0.343873C8.56154 0.207318 8.7776 0.133179 9 0.133179C9.2224 0.133179 9.43846 0.207318 9.614 0.343873L17.614 6.56587C17.7343 6.65944 17.8316 6.77926 17.8985 6.91617C17.9654 7.05309 18.0001 7.20349 18 7.35587V17.8669ZM16 16.8669V7.84487L9 2.39987L2 7.84487V16.8669H16Z" fill="#A4A2A2"/>
</svg>
