<svg width="18" height="17" viewBox="0 0 18 17" fill="none" xmlns="http://www.w3.org/2000/svg">
<path id="Vector" d="M9 8.5C10.1935 8.5 11.3381 8.05223 12.182 7.2552C13.0259 6.45817 13.5 5.37717 13.5 4.25C13.5 3.12283 13.0259 2.04183 12.182 1.2448C11.3381 0.447767 10.1935 0 9 0C7.80653 0 6.66193 0.447767 5.81802 1.2448C4.97411 2.04183 4.5 3.12283 4.5 4.25C4.5 5.37717 4.97411 6.45817 5.81802 7.2552C6.66193 8.05223 7.80653 8.5 9 8.5ZM12 4.25C12 5.00145 11.6839 5.72212 11.1213 6.25347C10.5587 6.78482 9.79565 7.08333 9 7.08333C8.20435 7.08333 7.44129 6.78482 6.87868 6.25347C6.31607 5.72212 6 5.00145 6 4.25C6 3.49855 6.31607 2.77788 6.87868 2.24653C7.44129 1.71518 8.20435 1.41667 9 1.41667C9.79565 1.41667 10.5587 1.71518 11.1213 2.24653C11.6839 2.77788 12 3.49855 12 4.25ZM18 15.5833C18 17 16.5 17 16.5 17H1.5C1.5 17 0 17 0 15.5833C0 14.1667 1.5 9.91667 9 9.91667C16.5 9.91667 18 14.1667 18 15.5833ZM16.5 15.5777C16.4985 15.2292 16.269 14.1808 15.252 13.2203C14.274 12.2967 12.4335 11.3333 9 11.3333C5.565 11.3333 3.726 12.2967 2.748 13.2203C1.731 14.1808 1.503 15.2292 1.5 15.5777H16.5Z" fill="#A4A2A2"/>
</svg>
