<svg width="25" height="24" viewBox="0 0 25 24" fill="none" xmlns="http://www.w3.org/2000/svg">
<g id="ri:instagram-line">
<path id="Vector" d="M12.501 9C11.7053 9 10.9423 9.31607 10.3797 9.87868C9.81705 10.4413 9.50098 11.2044 9.50098 12C9.50098 12.7956 9.81705 13.5587 10.3797 14.1213C10.9423 14.6839 11.7053 15 12.501 15C13.2966 15 14.0597 14.6839 14.6223 14.1213C15.1849 13.5587 15.501 12.7956 15.501 12C15.501 11.2044 15.1849 10.4413 14.6223 9.87868C14.0597 9.31607 13.2966 9 12.501 9ZM12.501 7C13.8271 7 15.0988 7.52678 16.0365 8.46447C16.9742 9.40215 17.501 10.6739 17.501 12C17.501 13.3261 16.9742 14.5979 16.0365 15.5355C15.0988 16.4732 13.8271 17 12.501 17C11.1749 17 9.90312 16.4732 8.96544 15.5355C8.02776 14.5979 7.50098 13.3261 7.50098 12C7.50098 10.6739 8.02776 9.40215 8.96544 8.46447C9.90312 7.52678 11.1749 7 12.501 7ZM19.001 6.75C19.001 7.08152 18.8693 7.39946 18.6349 7.63388C18.4004 7.8683 18.0825 8 17.751 8C17.4195 8 17.1015 7.8683 16.8671 7.63388C16.6327 7.39946 16.501 7.08152 16.501 6.75C16.501 6.41848 16.6327 6.10054 16.8671 5.86612C17.1015 5.6317 17.4195 5.5 17.751 5.5C18.0825 5.5 18.4004 5.6317 18.6349 5.86612C18.8693 6.10054 19.001 6.41848 19.001 6.75ZM12.501 4C10.027 4 9.62298 4.007 8.47198 4.058C7.68798 4.095 7.16198 4.2 6.67398 4.39C6.26559 4.53994 5.89639 4.78026 5.59398 5.093C5.28098 5.3954 5.04033 5.76458 4.88998 6.173C4.69998 6.663 4.59498 7.188 4.55898 7.971C4.50698 9.075 4.49998 9.461 4.49998 12C4.49998 14.475 4.50698 14.878 4.55798 16.029C4.59498 16.812 4.69998 17.339 4.88898 17.826C5.05898 18.261 5.25898 18.574 5.59098 18.906C5.92798 19.242 6.24098 19.443 6.67098 19.609C7.16498 19.8 7.69098 19.906 8.47098 19.942C9.57498 19.994 9.96098 20 12.5 20C14.975 20 15.378 19.993 16.529 19.942C17.311 19.905 17.837 19.8 18.326 19.611C18.734 19.4603 19.103 19.2201 19.406 18.908C19.743 18.572 19.944 18.259 20.11 17.828C20.3 17.336 20.406 16.81 20.442 16.028C20.494 14.925 20.5 14.538 20.5 12C20.5 9.526 20.493 9.122 20.442 7.971C20.405 7.189 20.299 6.661 20.11 6.173C19.9592 5.76502 19.719 5.39598 19.407 5.093C19.1047 4.77985 18.7355 4.53917 18.327 4.389C17.837 4.199 17.311 4.094 16.529 4.058C15.426 4.006 15.041 4 12.501 4ZM12.501 2C15.218 2 15.557 2.01 16.624 2.06C17.688 2.11 18.414 2.277 19.051 2.525C19.711 2.779 20.267 3.123 20.823 3.678C21.3315 4.1779 21.7249 4.78259 21.976 5.45C22.223 6.087 22.391 6.813 22.441 7.878C22.488 8.944 22.501 9.283 22.501 12C22.501 14.717 22.491 15.056 22.441 16.122C22.391 17.187 22.223 17.912 21.976 18.55C21.7256 19.2178 21.3321 19.8226 20.823 20.322C20.3229 20.8303 19.7183 21.2238 19.051 21.475C18.414 21.722 17.688 21.89 16.624 21.94C15.557 21.987 15.218 22 12.501 22C9.78398 22 9.44498 21.99 8.37798 21.94C7.31398 21.89 6.58898 21.722 5.95098 21.475C5.2833 21.2245 4.6785 20.8309 4.17898 20.322C3.67041 19.8222 3.27694 19.2175 3.02598 18.55C2.77798 17.913 2.61098 17.187 2.56098 16.122C2.51298 15.056 2.50098 14.717 2.50098 12C2.50098 9.283 2.51098 8.944 2.56098 7.878C2.61098 6.812 2.77798 6.088 3.02598 5.45C3.27621 4.78218 3.66978 4.17732 4.17898 3.678C4.67865 3.16923 5.28341 2.77573 5.95098 2.525C6.58798 2.277 7.31298 2.11 8.37798 2.06C9.44498 2.013 9.78398 2 12.501 2Z" fill="#1D1C1C"/>
</g>
</svg>
