<svg width="24" height="24" viewBox="0 0 24 24" fill="none" xmlns="http://www.w3.org/2000/svg">
<g id="ri:snapchat-line">
<path id="Vector" d="M15.3829 10.58L15.4029 10.331C15.4129 10.184 15.4239 10.027 15.4339 9.851C15.4659 9.293 15.4849 8.677 15.4849 8.006C15.4849 7.134 15.1909 6.519 14.5709 5.942C13.9109 5.328 13.1119 5 11.9809 5C10.8439 5 10.0229 5.335 9.47093 5.888C8.77493 6.583 8.51393 7.106 8.51393 7.988C8.51393 8.509 8.57393 9.982 8.60893 10.607C8.63715 11.1163 8.46974 11.6171 8.14093 12.007C8.19493 12.107 8.24593 12.212 8.29293 12.325C8.59293 13.096 8.49093 13.868 8.14093 14.596C7.74893 15.414 7.41093 15.989 6.73093 16.75C6.52932 16.9764 6.31498 17.191 6.08893 17.393C6.25829 17.5554 6.39776 17.7463 6.50093 17.957C7.03022 17.9103 7.5634 17.9356 8.08593 18.032C8.89593 18.178 9.40993 18.466 10.2799 19.093L10.2959 19.104L10.5089 19.256C11.1289 19.696 11.3859 19.802 11.9819 19.802C12.5909 19.802 12.8919 19.681 13.5049 19.25L13.7119 19.104C14.5889 18.472 15.1189 18.177 15.9429 18.028C16.4582 17.9423 16.9818 17.9174 17.5029 17.954C17.6073 17.7418 17.7485 17.5498 17.9199 17.387C17.7037 17.1921 17.4978 16.9862 17.3029 16.77C16.7212 16.1222 16.234 15.3953 15.8559 14.611C15.4929 13.862 15.3859 13.071 15.7189 12.29C15.7589 12.192 15.8039 12.1 15.8509 12.014C15.5135 11.6152 15.3455 11.1011 15.3829 10.58ZM5.06693 10.478C5.48693 10.478 5.66793 10.783 6.28693 10.783C6.39886 10.7859 6.50998 10.7633 6.61193 10.717C6.60393 10.561 6.51393 8.731 6.51393 7.988C6.51393 6.3 7.23293 5.298 8.05593 4.474C8.87893 3.65 10.1619 3 11.9819 3C13.8019 3 15.0479 3.653 15.9339 4.478C16.8199 5.303 17.4849 6.408 17.4849 8.006C17.4849 9.561 17.3859 10.6 17.3779 10.722C17.4639 10.7661 17.5593 10.7884 17.6559 10.787C18.2859 10.787 18.2859 10.477 18.9859 10.477C19.6719 10.477 19.9689 11.047 19.9689 11.3C19.9689 11.921 19.1369 12.267 18.6389 12.426C18.2699 12.543 17.7079 12.717 17.5639 13.061C17.4909 13.235 17.5209 13.461 17.6559 13.739C17.6599 13.747 18.9159 16.622 21.5859 17.065C21.8209 17.1 21.9779 17.306 21.9779 17.548C21.9779 17.881 21.6079 18.165 21.2509 18.33C20.8079 18.53 20.1609 18.7 19.2989 18.835C19.2559 18.913 19.1649 19.32 19.0639 19.722C18.9289 20.264 18.2639 20.088 18.0739 20.048C17.4828 19.9235 16.8739 19.9072 16.2769 20C15.7939 20.087 15.3639 20.378 14.8809 20.726C14.1679 21.23 13.4159 21.802 11.9809 21.802C10.5459 21.802 9.83693 21.23 9.12393 20.726C8.64193 20.378 8.21993 20.089 7.72893 20C6.82993 19.837 6.15893 20.036 5.93293 20.056C5.70693 20.077 5.09193 20.301 4.93693 19.73C4.89293 19.564 4.74693 18.922 4.70293 18.835C3.84593 18.7 3.19393 18.522 2.74993 18.322C2.38493 18.157 2.02393 17.879 2.02393 17.544C2.02393 17.308 2.18193 17.104 2.41593 17.061C5.05893 16.578 6.18093 14.056 6.33693 13.731C6.46993 13.455 6.49793 13.231 6.42893 13.052C6.28493 12.709 5.72393 12.539 5.35493 12.417C5.24993 12.383 4.01993 12.044 4.01993 11.3C4.01993 11.06 4.22393 10.727 4.60093 10.57C4.76293 10.504 4.96093 10.478 5.06693 10.478Z" fill="#FA7777" fill-opacity="0.2"/>
</g>
</svg>
