<svg width="20" height="21" viewBox="0 0 20 21" fill="none" xmlns="http://www.w3.org/2000/svg">
<path fill-rule="evenodd" clip-rule="evenodd" d="M9.75439 6.90625C8.80127 6.90625 7.88719 7.28488 7.21323 7.95884C6.53927 8.63279 6.16064 9.54688 6.16064 10.5C6.16064 11.4531 6.53927 12.3672 7.21323 13.0412C7.88719 13.7151 8.80127 14.0938 9.75439 14.0938C10.7075 14.0938 11.6216 13.7151 12.2956 13.0412C12.9695 12.3672 13.3481 11.4531 13.3481 10.5C13.3481 9.54688 12.9695 8.63279 12.2956 7.95884C11.6216 7.28488 10.7075 6.90625 9.75439 6.90625ZM7.59814 10.5C7.59814 9.92813 7.82532 9.37968 8.2297 8.9753C8.63407 8.57093 9.18252 8.34375 9.75439 8.34375C10.3263 8.34375 10.8747 8.57093 11.2791 8.9753C11.6835 9.37968 11.9106 9.92813 11.9106 10.5C11.9106 11.0719 11.6835 11.6203 11.2791 12.0247C10.8747 12.4291 10.3263 12.6562 9.75439 12.6562C9.18252 12.6562 8.63407 12.4291 8.2297 12.0247C7.82532 11.6203 7.59814 11.0719 7.59814 10.5Z" fill="#A4A2A2"/>
<path fill-rule="evenodd" clip-rule="evenodd" d="M9.73042 0.197937C9.30397 0.197937 8.94842 0.197937 8.65709 0.217104C8.3593 0.229504 8.06561 0.291027 7.78788 0.399187C7.46804 0.531523 7.1774 0.72557 6.93256 0.970245C6.68772 1.21492 6.49347 1.50543 6.36092 1.82519C6.22197 2.1606 6.18459 2.51519 6.16926 2.90044C6.16772 3.04133 6.13043 3.17953 6.06086 3.30206C5.9913 3.4246 5.89175 3.52745 5.77155 3.60098C5.64781 3.66854 5.50893 3.70355 5.36795 3.70271C5.22697 3.70187 5.08852 3.66522 4.96559 3.59619C4.62442 3.41602 4.29859 3.27131 3.93826 3.2234C3.59512 3.17826 3.24645 3.20115 2.91217 3.29077C2.57788 3.38038 2.26451 3.53497 1.98997 3.74569C1.75783 3.93245 1.55806 4.15618 1.39867 4.4079C1.23576 4.65131 1.05751 4.95894 0.844757 5.3279L0.820799 5.37006C0.60709 5.73902 0.429799 6.04665 0.301382 6.30923C0.167215 6.58331 0.0617988 6.85356 0.0234655 7.15256C-0.0679592 7.84543 0.119567 8.54624 0.544799 9.10085C0.766174 9.38931 1.05463 9.59919 1.38047 9.80427C1.50194 9.87609 1.60315 9.97763 1.67457 10.0993C1.74599 10.2211 1.78527 10.3589 1.78872 10.5C1.78527 10.6411 1.74599 10.779 1.67457 10.9007C1.60315 11.0224 1.50194 11.124 1.38047 11.1958C1.05463 11.4009 0.767132 11.6107 0.544799 11.8992C0.334077 12.1737 0.179496 12.4871 0.0898809 12.8214C0.000265877 13.1557 -0.0226277 13.5043 0.0225072 13.8475C0.0617989 14.1465 0.166257 14.4167 0.300424 14.6908C0.429799 14.9534 0.60709 15.261 0.820799 15.63L0.844757 15.6721C1.05751 16.0411 1.23576 16.3487 1.39867 16.5921C1.5683 16.8442 1.75038 17.0713 1.98997 17.2534C2.26444 17.4643 2.57777 17.619 2.91206 17.7088C3.24635 17.7986 3.59506 17.8216 3.93826 17.7766C4.29859 17.7287 4.62442 17.585 4.96559 17.4039C5.08837 17.3349 5.22666 17.2983 5.36747 17.2975C5.50828 17.2966 5.647 17.3316 5.77059 17.3991C5.89145 17.472 5.99163 17.5747 6.06158 17.6973C6.13154 17.8199 6.16893 17.9584 6.17022 18.0996C6.18459 18.4849 6.22197 18.8394 6.36188 19.1749C6.49422 19.4947 6.68827 19.7853 6.93294 20.0302C7.17762 20.275 7.46813 20.4693 7.78788 20.6018C8.0658 20.7168 8.3533 20.7619 8.65709 20.782C8.94842 20.8021 9.30397 20.8021 9.73042 20.8021H9.77834C10.2048 20.8021 10.5603 20.8021 10.8517 20.7829C11.1564 20.7619 11.443 20.7168 11.7209 20.6009C12.0407 20.4685 12.3314 20.2745 12.5762 20.0298C12.821 19.7851 13.0153 19.4946 13.1478 19.1749C13.2868 18.8394 13.3242 18.4849 13.3395 18.0996C13.3409 17.9585 13.3781 17.8202 13.4477 17.6974C13.5172 17.5747 13.6169 17.4717 13.7372 17.3981C13.861 17.3307 14 17.2958 14.1409 17.2968C14.2819 17.2979 14.4203 17.3347 14.5432 17.4039C14.8843 17.584 15.2102 17.7287 15.5705 17.7757C16.2634 17.8671 16.9642 17.6796 17.5188 17.2544C17.7584 17.0704 17.9405 16.8442 18.1101 16.5921C18.273 16.3487 18.4513 16.0411 18.664 15.6721L18.688 15.63C18.9017 15.261 19.079 14.9534 19.2074 14.6908C19.3415 14.4167 19.447 14.1455 19.4853 13.8475C19.5767 13.1546 19.3892 12.4538 18.964 11.8992C18.7426 11.6107 18.4541 11.4009 18.1283 11.1958C18.0068 11.124 17.9056 11.0224 17.8342 10.9007C17.7628 10.779 17.7235 10.6411 17.72 10.5C17.72 10.2336 17.8657 9.9691 18.1283 9.80427C18.4541 9.59919 18.7416 9.38931 18.964 9.10085C19.1747 8.82631 19.3293 8.51294 19.4189 8.17865C19.5085 7.84437 19.5314 7.4957 19.4863 7.15256C19.4406 6.85808 19.3467 6.57313 19.2083 6.30923C19.0447 5.99082 18.8712 5.67761 18.688 5.37006L18.664 5.3279C18.4889 5.01556 18.3042 4.70875 18.1101 4.4079C17.9507 4.15645 17.7509 3.93303 17.5188 3.74665C17.2443 3.53576 16.931 3.381 16.5967 3.29122C16.2624 3.20144 15.9137 3.17839 15.5705 3.2234C15.2102 3.27131 14.8843 3.41506 14.5432 3.59619C14.4204 3.66505 14.2821 3.70161 14.1413 3.70245C14.0005 3.70329 13.8618 3.66837 13.7382 3.60098C13.6176 3.52768 13.5177 3.42493 13.4478 3.30238C13.3779 3.17983 13.3403 3.04151 13.3385 2.90044C13.3242 2.51519 13.2868 2.1606 13.1469 1.82519C13.0145 1.50534 12.8205 1.2147 12.5758 0.969862C12.3311 0.725021 12.0406 0.530779 11.7209 0.398229C11.443 0.283229 11.1555 0.238187 10.8517 0.218062C10.5603 0.197937 10.2048 0.197937 9.77834 0.197937H9.73042ZM8.33797 1.72648C8.41176 1.69581 8.52388 1.66802 8.75484 1.65173C8.99155 1.63544 9.29822 1.63544 9.75438 1.63544C10.2105 1.63544 10.5172 1.63544 10.7539 1.65173C10.9849 1.66802 11.097 1.69581 11.1708 1.72648C11.465 1.84819 11.6979 2.08106 11.8196 2.37527C11.8579 2.46727 11.8895 2.61198 11.902 2.9541C11.9308 3.7131 12.3227 4.44431 13.0185 4.84585C13.7142 5.24835 14.5432 5.22152 15.215 4.86694C15.5178 4.7069 15.6587 4.66185 15.7583 4.6494C16.0732 4.60779 16.3917 4.69293 16.6438 4.8861C16.7071 4.93498 16.7876 5.01835 16.917 5.21002C17.0502 5.40744 17.2035 5.6729 17.4316 6.06773C17.6597 6.46256 17.812 6.72898 17.9165 6.94173C18.019 7.14969 18.0507 7.26085 18.0603 7.3404C18.1019 7.65527 18.0167 7.97378 17.8235 8.22589C17.7622 8.30544 17.653 8.4051 17.3635 8.58719C16.7195 8.9916 16.2825 9.69694 16.2825 10.5C16.2825 11.3031 16.7195 12.0084 17.3635 12.4129C17.653 12.5949 17.7622 12.6946 17.8235 12.7741C18.0171 13.0262 18.1015 13.3444 18.0603 13.6596C18.0507 13.7392 18.0181 13.8513 17.9165 14.0583C17.812 14.272 17.6597 14.5375 17.4316 14.9323C17.2035 15.3271 17.0492 15.5926 16.917 15.79C16.7876 15.9817 16.7071 16.0651 16.6438 16.1139C16.3917 16.3071 16.0732 16.3923 15.7583 16.3506C15.6587 16.3382 15.5188 16.2931 15.215 16.1331C14.5441 15.7785 13.7142 15.7517 13.0185 16.1532C12.3227 16.5557 11.9308 17.2869 11.902 18.0459C11.8895 18.3881 11.8579 18.5328 11.8196 18.6248C11.7594 18.7702 11.6711 18.9024 11.5598 19.0137C11.4484 19.1251 11.3163 19.2134 11.1708 19.2736C11.097 19.3042 10.9849 19.332 10.7539 19.3483C10.5172 19.3646 10.2105 19.3646 9.75438 19.3646C9.29822 19.3646 8.99155 19.3646 8.75484 19.3483C8.52388 19.332 8.41176 19.3042 8.33797 19.2736C8.19249 19.2134 8.06032 19.1251 7.94899 19.0137C7.83767 18.9024 7.74938 18.7702 7.68917 18.6248C7.65084 18.5328 7.61922 18.3881 7.60676 18.0459C7.57801 17.2869 7.18605 16.5557 6.4903 16.1542C5.79455 15.7517 4.96559 15.7785 4.2938 16.1331C3.99097 16.2931 3.85009 16.3382 3.75042 16.3506C3.43555 16.3923 3.11704 16.3071 2.86492 16.1139C2.80167 16.0651 2.72117 15.9817 2.5918 15.79C2.41155 15.5094 2.23992 15.2234 2.07717 14.9323C1.84909 14.5375 1.69672 14.2711 1.59226 14.0583C1.48972 13.8504 1.45809 13.7392 1.44851 13.6596C1.4069 13.3448 1.49204 13.0263 1.68522 12.7741C1.74655 12.6946 1.8558 12.5949 2.14522 12.4129C2.78922 12.0084 3.22622 11.3031 3.22622 10.5C3.22622 9.69694 2.78922 8.9916 2.14522 8.58719C1.8558 8.4051 1.74655 8.30544 1.68522 8.22589C1.49204 7.97378 1.4069 7.65527 1.44851 7.3404C1.45809 7.26085 1.49067 7.14873 1.59226 6.94173C1.69672 6.72802 1.84909 6.46256 2.07717 6.06773C2.30526 5.6729 2.45955 5.40744 2.5918 5.21002C2.72117 5.01835 2.80167 4.93498 2.86492 4.8861C3.11704 4.69293 3.43555 4.60779 3.75042 4.6494C3.85009 4.66185 3.99001 4.7069 4.2938 4.86694C4.96463 5.22152 5.79455 5.24835 6.4903 4.84585C7.18605 4.44431 7.57801 3.7131 7.60676 2.9541C7.61922 2.61198 7.65084 2.46727 7.68917 2.37527C7.81088 2.08106 8.04376 1.84819 8.33797 1.72648Z" fill="#A4A2A2"/>
</svg>
