<svg width="25" height="21" viewBox="0 0 25 21" fill="none" xmlns="http://www.w3.org/2000/svg">
<path id="Vector" d="M4.22917 5.06252C4.22917 4.26135 4.54743 3.49298 5.11395 2.92647C5.68046 2.35995 6.44882 2.04169 7.25 2.04169C8.05117 2.04169 8.81954 2.35995 9.38605 2.92647C9.95257 3.49298 10.2708 4.26135 10.2708 5.06252C10.2708 5.86369 9.95257 6.63206 9.38605 7.19857C8.81954 7.76509 8.05117 8.08335 7.25 8.08335C6.44882 8.08335 5.68046 7.76509 5.11395 7.19857C4.54743 6.63206 4.22917 5.86369 4.22917 5.06252ZM7.25 0.229187C5.96812 0.229187 4.73874 0.738411 3.83232 1.64484C2.92589 2.55126 2.41667 3.78064 2.41667 5.06252C2.41667 6.3444 2.92589 7.57378 3.83232 8.4802C4.73874 9.38663 5.96812 9.89585 7.25 9.89585C8.53188 9.89585 9.76126 9.38663 10.6677 8.4802C11.5741 7.57378 12.0833 6.3444 12.0833 5.06252C12.0833 3.78064 11.5741 2.55126 10.6677 1.64484C9.76126 0.738411 8.53188 0.229187 7.25 0.229187ZM16.3125 6.27085C16.3125 5.79015 16.5035 5.32913 16.8434 4.98922C17.1833 4.64931 17.6443 4.45835 18.125 4.45835C18.6057 4.45835 19.0667 4.64931 19.4066 4.98922C19.7465 5.32913 19.9375 5.79015 19.9375 6.27085C19.9375 6.75156 19.7465 7.21257 19.4066 7.55248C19.0667 7.89239 18.6057 8.08335 18.125 8.08335C17.6443 8.08335 17.1833 7.89239 16.8434 7.55248C16.5035 7.21257 16.3125 6.75156 16.3125 6.27085ZM18.125 2.64585C17.1636 2.64585 16.2416 3.02777 15.5617 3.70759C14.8819 4.38741 14.5 5.30944 14.5 6.27085C14.5 7.23226 14.8819 8.1543 15.5617 8.83412C16.2416 9.51394 17.1636 9.89585 18.125 9.89585C19.0864 9.89585 20.0084 9.51394 20.6883 8.83412C21.3681 8.1543 21.75 7.23226 21.75 6.27085C21.75 5.30944 21.3681 4.38741 20.6883 3.70759C20.0084 3.02777 19.0864 2.64585 18.125 2.64585ZM14.7997 18.4001C15.6491 18.7445 16.7378 18.9584 18.1262 18.9584C20.8836 18.9584 22.4593 18.1161 23.3184 17.0758C23.7353 16.5707 23.9467 16.0608 24.0555 15.6705C24.1175 15.4443 24.1551 15.2122 24.1679 14.9781V14.9455C24.1679 14.5997 24.0998 14.2573 23.9675 13.9379C23.8351 13.6184 23.6412 13.3282 23.3967 13.0837C23.1522 12.8392 22.8619 12.6453 22.5425 12.5129C22.2231 12.3806 21.8807 12.3125 21.5349 12.3125H14.7175C14.6837 12.3125 14.651 12.3125 14.6184 12.3149C15.0945 12.8104 15.4401 13.4326 15.6044 14.125H21.5349C21.9844 14.125 22.3493 14.4863 22.3554 14.9334C22.3468 15.02 22.3306 15.1057 22.307 15.1896C22.2324 15.4583 22.1005 15.7077 21.9204 15.9206C21.4975 16.4354 20.5042 17.1459 18.1262 17.1459C16.942 17.1459 16.101 16.9694 15.5041 16.729C15.3736 17.2123 15.1585 17.7959 14.7997 18.4001ZM2.71875 12.3125C1.99769 12.3125 1.30617 12.599 0.796303 13.1088C0.286439 13.6187 0 14.3102 0 15.0313V15.3672C0.00142011 15.4512 0.00706606 15.5351 0.0169166 15.6185C0.1167 16.5176 0.439876 17.3775 0.957 18.1198C1.94542 19.5311 3.83283 20.7709 7.25 20.7709C10.6672 20.7709 12.5546 19.5323 13.543 18.1186C14.0603 17.3764 14.3834 16.5165 14.4831 15.6173C14.4916 15.5342 14.4973 15.4507 14.5 15.3672V15.0313C14.5 14.3102 14.2136 13.6187 13.7037 13.1088C13.1938 12.599 12.5023 12.3125 11.7812 12.3125H2.71875ZM1.8125 15.3418V15.0313C1.8125 14.7909 1.90798 14.5604 2.07793 14.3905C2.24789 14.2205 2.4784 14.125 2.71875 14.125H11.7812C12.0216 14.125 12.2521 14.2205 12.4221 14.3905C12.592 14.5604 12.6875 14.7909 12.6875 15.0313V15.3418L12.679 15.4385C12.6102 16.0282 12.3968 16.5919 12.058 17.0794C11.4622 17.9313 10.1766 18.9584 7.25 18.9584C4.32342 18.9584 3.03775 17.9313 2.44083 17.0794C2.10237 16.5917 1.88946 16.0281 1.82096 15.4385C1.81729 15.4063 1.81447 15.3741 1.8125 15.3418Z" fill="#A4A2A2"/>
</svg>
