<svg width="139" height="41" viewBox="0 0 139 41" fill="none" xmlns="http://www.w3.org/2000/svg">
<path d="M51.352 11.8643H54.8362V15.1525H54.9014C55.0099 14.6921 55.2161 14.2428 55.5201 13.8043C55.8457 13.3659 56.2256 12.9713 56.6597 12.6206C57.1156 12.2479 57.6149 11.952 58.1576 11.7328C58.7003 11.5136 59.2539 11.404 59.8183 11.404C60.2525 11.404 60.5456 11.4149 60.6975 11.4369C60.8712 11.4588 61.0448 11.4807 61.2185 11.5026V15.1196C60.958 15.0758 60.6867 15.0429 60.4044 15.021C60.1439 14.9771 59.8834 14.9552 59.6229 14.9552C58.9934 14.9552 58.3964 15.0867 57.832 15.3498C57.2893 15.5909 56.8117 15.9636 56.3992 16.4678C55.9868 16.95 55.6612 17.5529 55.4224 18.2762C55.1836 18.9996 55.0642 19.8327 55.0642 20.7753V28.8642H51.352V11.8643Z" fill="#EAEAE1"/>
<path d="M77.5833 28.8642H73.9363V26.4967H73.8711C73.4153 27.3516 72.7314 28.0421 71.8197 28.5682C70.9296 29.0724 70.0179 29.3245 69.0844 29.3245C66.8702 29.3245 65.2637 28.7765 64.2652 27.6804C63.2883 26.5624 62.7998 24.8855 62.7998 22.6495V11.8643H66.512V22.2878C66.512 23.7785 66.7942 24.8307 67.3586 25.4445C67.923 26.0583 68.7154 26.3652 69.7357 26.3652C70.5172 26.3652 71.1684 26.2446 71.6894 26.0035C72.2104 25.7623 72.6338 25.4445 72.9594 25.0499C73.285 24.6334 73.5129 24.1402 73.6432 23.5702C73.7952 23.0003 73.8711 22.3865 73.8711 21.7288V11.8643H77.5833V28.8642Z" fill="#EAEAE1"/>
<path d="M81.4979 11.8643H85.0147V14.2318H85.1124C85.3946 13.8153 85.6985 13.4317 86.0241 13.0809C86.3498 12.7302 86.7079 12.4343 87.0987 12.1931C87.5112 11.952 87.9779 11.7657 88.4989 11.6341C89.0199 11.4807 89.6169 11.404 90.2898 11.404C91.3101 11.404 92.2544 11.6341 93.1228 12.0945C94.0128 12.5548 94.6424 13.2673 95.0114 14.2318C95.641 13.355 96.3682 12.6644 97.1931 12.1603C98.018 11.6561 99.0492 11.404 100.287 11.404C102.067 11.404 103.445 11.8424 104.422 12.7192C105.421 13.5961 105.92 15.0648 105.92 17.1254V28.8642H102.208V18.9339C102.208 18.2543 102.186 17.6405 102.143 17.0925C102.099 16.5226 101.969 16.0403 101.752 15.6457C101.557 15.2292 101.253 14.9114 100.84 14.6921C100.428 14.4729 99.8633 14.3633 99.1469 14.3633C97.8878 14.3633 96.976 14.7579 96.4116 15.5471C95.8472 16.3362 95.565 17.4542 95.565 18.901V28.8642H91.8528V17.9474C91.8528 16.7637 91.6358 15.8759 91.2016 15.284C90.7891 14.6702 90.0185 14.3633 88.8896 14.3633C88.4121 14.3633 87.9453 14.462 87.4894 14.6593C87.0553 14.8566 86.6645 15.1415 86.3172 15.5142C85.9916 15.8868 85.7202 16.3472 85.5031 16.8952C85.3077 17.4432 85.2101 18.068 85.2101 18.7695V28.8642H81.4979V11.8643Z" fill="#EAEAE1"/>
<path d="M117.549 29.3245C116.203 29.3245 114.998 29.1053 113.934 28.6669C112.892 28.2065 112.002 27.5818 111.264 26.7926C110.548 26.0035 109.994 25.0608 109.603 23.9648C109.234 22.8687 109.05 21.6631 109.05 20.3478C109.05 19.0545 109.234 17.8597 109.603 16.7637C109.994 15.6676 110.548 14.725 111.264 13.9359C112.002 13.1467 112.892 12.5329 113.934 12.0945C114.998 11.6341 116.203 11.404 117.549 11.404C118.895 11.404 120.088 11.6341 121.13 12.0945C122.194 12.5329 123.084 13.1467 123.801 13.9359C124.539 14.725 125.092 15.6676 125.461 16.7637C125.852 17.8597 126.047 19.0545 126.047 20.3478C126.047 21.6631 125.852 22.8687 125.461 23.9648C125.092 25.0608 124.539 26.0035 123.801 26.7926C123.084 27.5818 122.194 28.2065 121.13 28.6669C120.088 29.1053 118.895 29.3245 117.549 29.3245ZM117.549 26.3652C118.374 26.3652 119.09 26.1898 119.698 25.839C120.306 25.4883 120.805 25.028 121.196 24.458C121.586 23.8881 121.869 23.2523 122.042 22.5509C122.238 21.8275 122.335 21.0931 122.335 20.3478C122.335 19.6244 122.238 18.901 122.042 18.1776C121.869 17.4542 121.586 16.8185 121.196 16.2705C120.805 15.7005 120.306 15.2402 119.698 14.8894C119.09 14.5387 118.374 14.3633 117.549 14.3633C116.724 14.3633 116.007 14.5387 115.399 14.8894C114.792 15.2402 114.292 15.7005 113.902 16.2705C113.511 16.8185 113.218 17.4542 113.022 18.1776C112.849 18.901 112.762 19.6244 112.762 20.3478C112.762 21.0931 112.849 21.8275 113.022 22.5509C113.218 23.2523 113.511 23.8881 113.902 24.458C114.292 25.028 114.792 25.4883 115.399 25.839C116.007 26.1898 116.724 26.3652 117.549 26.3652Z" fill="#EAEAE1"/>
<path d="M129.134 11.8643H132.618V15.1525H132.683C132.791 14.6921 132.998 14.2428 133.302 13.8043C133.627 13.3659 134.007 12.9713 134.441 12.6206C134.897 12.2479 135.396 11.952 135.939 11.7328C136.482 11.5136 137.035 11.404 137.6 11.404C138.034 11.404 138.327 11.4149 138.479 11.4369C138.653 11.4588 138.826 11.4807 139 11.5026V15.1196C138.739 15.0758 138.468 15.0429 138.186 15.021C137.925 14.9771 137.665 14.9552 137.404 14.9552C136.775 14.9552 136.178 15.0867 135.613 15.3498C135.071 15.5909 134.593 15.9636 134.181 16.4678C133.768 16.95 133.443 17.5529 133.204 18.2762C132.965 18.9996 132.846 19.8327 132.846 20.7753V28.8642H129.134V11.8643Z" fill="#EAEAE1"/>
<path d="M9.41006 20.3642C9.41006 29.0618 8.50727 36.1126 7.39362 36.1126C6.27997 36.1126 5.37718 29.0618 5.37718 20.3642C5.37718 11.6667 6.27997 4.61589 7.39362 4.61589C8.50727 4.61589 9.41006 11.6667 9.41006 20.3642Z" fill="#EAEAE1"/>
<path d="M34.1451 20.3642C34.1451 29.0618 33.2423 36.1126 32.1286 36.1126C31.015 36.1126 30.1122 29.0618 30.1122 20.3642C30.1122 11.6667 31.015 4.61589 32.1286 4.61589C33.2423 4.61589 34.1451 11.6667 34.1451 20.3642Z" fill="#EAEAE1"/>
<path d="M27.9613 20.5C27.9613 31.072 26.7576 39.6424 25.2727 39.6424C23.7879 39.6424 22.5841 31.072 22.5841 20.5C22.5841 9.92795 23.7879 1.35762 25.2727 1.35762C26.7576 1.35762 27.9613 9.92795 27.9613 20.5Z" fill="#EAEAE1"/>
<path d="M16.9381 20.5C16.9381 31.072 15.7344 39.6424 14.2495 39.6424C12.7646 39.6424 11.5609 31.072 11.5609 20.5C11.5609 9.92795 12.7646 1.35762 14.2495 1.35762C15.7344 1.35762 16.9381 9.92795 16.9381 20.5Z" fill="#EAEAE1"/>
<path d="M23.3907 20.5C23.3907 31.8218 21.8259 41 19.8955 41C17.9652 41 16.4004 31.8218 16.4004 20.5C16.4004 9.17816 17.9652 0 19.8955 0C21.8259 0 23.3907 9.17816 23.3907 20.5Z" fill="#EAEAE1"/>
<path d="M2.95745 20.3642C2.95745 25.1629 2.2954 29.053 1.47872 29.053C0.662047 29.053 0 25.1629 0 20.3642C0 15.5656 0.662047 11.6755 1.47872 11.6755C2.2954 11.6755 2.95745 15.5656 2.95745 20.3642Z" fill="#EAEAE1"/>
<path d="M39.5222 20.3642C39.5222 25.1629 38.8602 29.053 38.0435 29.053C37.2268 29.053 36.5648 25.1629 36.5648 20.3642C36.5648 15.5656 37.2268 11.6755 38.0435 11.6755C38.8602 11.6755 39.5222 15.5656 39.5222 20.3642Z" fill="#EAEAE1"/>
</svg>
